<?xml version="1.0"?>
<svg xmlns="http://www.w3.org/2000/svg" width="41.5" height="41.5" viewBox="0 0 41.5 41.5">
  <g id="_1" data-name="1" transform="translate(-441 -780)">
    <g id="Grupo_35709" data-name="Grupo 35709" transform="translate(441 780)">
      <rect id="Rect&#xE1;ngulo_429" data-name="Rect&#xE1;ngulo 429" width="31.851" height="31.79" rx="3" transform="translate(4.824 4.491)" fill="#e0e0e0"/>
      <g id="Rect&#xE1;ngulo_430" data-name="Rect&#xE1;ngulo 430" transform="translate(0 11.942) rotate(-22)" fill="none" stroke="#bbbcbc" stroke-width="1">
        <rect width="31.879" height="31.879" rx="5" stroke="none"/>
        <rect x="0.5" y="0.5" width="30.879" height="30.879" rx="4.5" fill="none"/>
      </g>
      <g id="noun-campus-4589373" transform="translate(10.649 9.455)">
        <path id="Trazado_845" data-name="Trazado 845" d="M100.568,21.253a.24.24,0,0,0,.239-.239V19.105a.24.24,0,0,0-.239-.239H96.35a.239.239,0,1,0,0,.477h3.98v1.432H96.35a.239.239,0,1,0,0,.477h2.723v7.89H95.634V27.867a.239.239,0,1,0-.477,0v1.276H92.612V25.2a.24.24,0,0,0-.239-.239H89.039a.24.24,0,0,0-.239.239v3.945H86.256v-11.3h8.9v8.99a.239.239,0,1,0,.477,0v-8.99h1.021a.24.24,0,0,0,.239-.239V15.7a.24.24,0,0,0-.239-.239h-5.71V13.713h3.178a.236.236,0,0,0,.22-.146.24.24,0,0,0-.051-.261l-1.1-1.1,1.1-1.1a.239.239,0,0,0-.169-.407H90.707a.24.24,0,0,0-.239.239v4.521H87.29a.239.239,0,0,0,0,.477h9.127v1.432H85V15.934h1.263a.239.239,0,1,0,0-.477h-1.5a.24.24,0,0,0-.239.239V17.6a.24.24,0,0,0,.239.239h1.021v11.3H82.34v-7.89h2.723a.239.239,0,0,0,0-.477h-3.98V19.344h3.98a.239.239,0,0,0,0-.477H80.844a.24.24,0,0,0-.239.239v1.909a.24.24,0,0,0,.239.239h1.018v7.89H80.844a.239.239,0,0,0,0,.477h19.724a.239.239,0,1,0,0-.477H99.55v-7.89Zm-7.886-9.216a.238.238,0,0,0,0,.337l.862.862h-2.6V11.175h2.6Zm-3.4,17.106V25.436h2.854v3.706Z" transform="translate(-80.606 -10.697)" fill="#97999b"/>
        <path id="Trazado_846" data-name="Trazado 846" d="M149.912,313.665a.24.24,0,0,0-.239-.239H148.3a.24.24,0,0,0-.239.239v2.224a.24.24,0,0,0,.239.239h1.371a.24.24,0,0,0,.239-.239Zm-.477,1.985h-.894V313.9h.894Z" transform="translate(-145.534 -302.076)" fill="#97999b"/>
        <path id="Trazado_847" data-name="Trazado 847" d="M149.67,409.31H148.3a.24.24,0,0,0-.239.239v2.224a.24.24,0,0,0,.239.239h1.371a.24.24,0,0,0,.239-.239v-2.224A.24.24,0,0,0,149.67,409.31Zm-.239,2.227h-.894V409.79h.894Z" transform="translate(-145.532 -394.365)" fill="#97999b"/>
        <path id="Trazado_848" data-name="Trazado 848" d="M502.885,316.125h1.371a.24.24,0,0,0,.239-.239v-2.224a.24.24,0,0,0-.239-.239h-1.371a.24.24,0,0,0-.239.239v2.224A.238.238,0,0,0,502.885,316.125Zm.239-2.224h.894v1.746h-.894Z" transform="translate(-486.823 -302.074)" fill="#97999b"/>
        <path id="Trazado_849" data-name="Trazado 849" d="M502.64,411.86a.24.24,0,0,0,.239.239h1.371a.24.24,0,0,0,.239-.239v-2.224a.24.24,0,0,0-.239-.239h-1.371a.24.24,0,0,0-.239.239Zm.477-1.988h.894v1.746h-.894Z" transform="translate(-486.816 -394.449)" fill="#97999b"/>
        <path id="Trazado_850" data-name="Trazado 850" d="M254.411,222.715a.24.24,0,0,0-.239-.239h-1.428a.24.24,0,0,0-.239.239v1.89a.24.24,0,0,0,.239.239h1.428a.24.24,0,0,0,.239-.239Zm-.477,1.648h-.951v-1.412h.951Z" transform="translate(-246.06 -214.536)" fill="#97999b"/>
        <path id="Trazado_851" data-name="Trazado 851" d="M326.531,222.715a.24.24,0,0,0-.239-.239h-1.428a.24.24,0,0,0-.239.239v1.89a.24.24,0,0,0,.239.239h1.428a.24.24,0,0,0,.239-.239Zm-.477,1.648H325.1v-1.412h.951v1.412Z" transform="translate(-315.476 -214.536)" fill="#97999b"/>
        <path id="Trazado_852" data-name="Trazado 852" d="M398.571,222.715a.24.24,0,0,0-.239-.239H396.9a.24.24,0,0,0-.239.239v1.89a.24.24,0,0,0,.239.239h1.429a.24.24,0,0,0,.239-.239Zm-.477,1.648h-.951v-1.412h.951Z" transform="translate(-384.815 -214.536)" fill="#97999b"/>
        <path id="Trazado_853" data-name="Trazado 853" d="M254.176,306.73h-1.428a.24.24,0,0,0-.239.239v1.89a.24.24,0,0,0,.239.239h1.428a.24.24,0,0,0,.239-.239v-1.89A.238.238,0,0,0,254.176,306.73Zm-.239,1.89h-.951v-1.413h.951Z" transform="translate(-246.063 -295.631)" fill="#97999b"/>
        <path id="Trazado_854" data-name="Trazado 854" d="M326.3,306.73h-1.428a.24.24,0,0,0-.239.239v1.89a.24.24,0,0,0,.239.239H326.3a.24.24,0,0,0,.239-.239v-1.89A.24.24,0,0,0,326.3,306.73Zm-.239,1.89H325.1v-1.413h.951v1.413Z" transform="translate(-315.479 -295.631)" fill="#97999b"/>
        <path id="Trazado_855" data-name="Trazado 855" d="M398.336,306.73h-1.428a.24.24,0,0,0-.239.239v1.89a.24.24,0,0,0,.239.239h1.428a.24.24,0,0,0,.239-.239v-1.89A.24.24,0,0,0,398.336,306.73Zm-.239,1.89h-.951v-1.413h.951Z" transform="translate(-384.818 -295.631)" fill="#97999b"/>
        <path id="Trazado_856" data-name="Trazado 856" d="M100.569,536.58H80.845a.239.239,0,0,0,0,.477h19.724a.239.239,0,0,0,0-.477Z" transform="translate(-80.607 -516.863)" fill="#97999b"/>
      </g>
    </g>
  </g>
</svg>
