<?xml version="1.0"?>
<svg xmlns="http://www.w3.org/2000/svg" width="57.279" height="57.279" viewBox="0 0 57.279 57.279">
  <g id="_2" data-name="2" transform="translate(-295 -780)">
    <g id="Grupo_35710" data-name="Grupo 35710" transform="translate(18 -0.203)">
      <rect id="Rect&#xE1;ngulo_427" data-name="Rect&#xE1;ngulo 427" width="43.962" height="43.877" rx="8" transform="translate(283.658 786.402)" fill="#e0e0e0"/>
      <g id="Rect&#xE1;ngulo_428" data-name="Rect&#xE1;ngulo 428" transform="translate(277 796.686) rotate(-22)" fill="none" stroke="#bbbcbc" stroke-width="1">
        <rect width="44" height="44" rx="8" stroke="none"/>
        <rect x="0.5" y="0.5" width="43" height="43" rx="7.5" fill="none"/>
      </g>
      <g id="noun-education-2064529" transform="translate(218.754 685.482)">
        <path id="Trazado_843" data-name="Trazado 843" d="M124.863,121.215l-11.853-6.574a2.577,2.577,0,0,0-2.515,0l-11.853,6.574a1.267,1.267,0,0,0,.308,2.338l.347.087v2.2a1.358,1.358,0,0,0,0,2.562v3.553a.459.459,0,0,0,.917,0V128.4a1.358,1.358,0,0,0,0-2.562v-1.967l3.736.931v4.5h0a.428.428,0,0,0,0,.05.455.455,0,0,0,.725.317,4.331,4.331,0,0,1,3.885-.574,5.126,5.126,0,0,1,1.694,1.093,2.076,2.076,0,0,0,2.982,0,5.124,5.124,0,0,1,1.694-1.093,4.33,4.33,0,0,1,3.885.574.455.455,0,0,0,.725-.317.431.431,0,0,0,0-.049h0v-4.5l5-1.246a1.268,1.268,0,0,0,.309-2.339Zm-.268,1.154a.343.343,0,0,1-.262.294l-5.189,1.292a31.292,31.292,0,0,0-3.669-1.5.459.459,0,0,0-.256.881,29.736,29.736,0,0,1,3.418,1.392V128.5a5.028,5.028,0,0,0-4.023-.269,6.043,6.043,0,0,0-2,1.284,1.172,1.172,0,0,1-1.722,0,6.048,6.048,0,0,0-2-1.284,5.03,5.03,0,0,0-4.023.269v-3.769c.231-.108.6-.277,1.018-.463a.459.459,0,1,0-.37-.84c-.519.229-.942.427-1.156.528l-5.19-1.292a.35.35,0,0,1-.085-.646l11.853-6.574a1.666,1.666,0,0,1,1.625,0l11.853,6.574a.342.342,0,0,1,.177.352Z" transform="translate(-24.8)" fill="#97999b"/>
        <path id="Trazado_844" data-name="Trazado 844" d="M262.246,254.314a13.892,13.892,0,0,0-5.686.262l-.046.012a12.687,12.687,0,0,0-1.388.471.459.459,0,0,0,.167.886.452.452,0,0,0,.167-.032,11.859,11.859,0,0,1,1.279-.436l.045-.011a12.977,12.977,0,0,1,5.314-.246.458.458,0,1,0,.147-.9Z" transform="translate(-173.079 -132.186)" fill="#97999b"/>
      </g>
    </g>
  </g>
</svg>
