<?xml version="1.0"?>
<svg xmlns="http://www.w3.org/2000/svg" width="57.279" height="57.279" viewBox="0 0 57.279 57.279">
  <g id="_1" data-name="1" transform="translate(-148 -780)">
    <g id="Grupo_35711" data-name="Grupo 35711" transform="translate(0 -0.047)">
      <rect id="Rect&#xE1;ngulo_372" data-name="Rect&#xE1;ngulo 372" width="43.962" height="43.877" rx="8" transform="translate(154.658 786.245)" fill="#e0e0e0"/>
      <g id="Rect&#xE1;ngulo_375" data-name="Rect&#xE1;ngulo 375" transform="translate(148 796.53) rotate(-22)" fill="none" stroke="#bbbcbc" stroke-width="1">
        <rect width="44" height="44" rx="8" stroke="none"/>
        <rect x="0.5" y="0.5" width="43" height="43" rx="7.5" fill="none"/>
      </g>
      <path id="noun-calendar-4879873" d="M82.135,1.173h-.2a1.645,1.645,0,0,0-3.212,0H77.243a1.645,1.645,0,0,0-3.211,0H72.55a1.645,1.645,0,0,0-3.211,0H68.191a1.645,1.645,0,0,0-3.212,0,2.41,2.41,0,0,0-2.585,2.393v15.48a2.392,2.392,0,0,0,2.389,2.389H82.135a2.392,2.392,0,0,0,2.39-2.389V3.566a2.393,2.393,0,0,0-2.39-2.393Zm-1.8-.631a.967.967,0,0,1,.9.634H79.428a.967.967,0,0,1,.907-.634Zm-4.7,0a.968.968,0,0,1,.907.634H74.732a.971.971,0,0,1,.907-.634Zm-4.695,0h0a.968.968,0,0,1,.907.634H70.038a.968.968,0,0,1,.906-.634Zm-4.36,0h0a.967.967,0,0,1,.907.634H65.678a.968.968,0,0,1,.906-.634Zm-1.8,1.3h.2a1.644,1.644,0,0,0,1.6,1.3.336.336,0,0,0,0-.672.968.968,0,0,1-.906-.635h3.66a1.645,1.645,0,0,0,1.605,1.307.336.336,0,0,0,0-.672.971.971,0,0,1-.907-.635h4a1.644,1.644,0,0,0,1.606,1.307.336.336,0,1,0,0-.672.969.969,0,0,1-.907-.635h4a1.644,1.644,0,0,0,1.606,1.307.336.336,0,0,0,0-.672.967.967,0,0,1-.907-.635h2.217a1.819,1.819,0,0,1,2.209,1.72v.6H63.065v-.6a1.721,1.721,0,0,1,1.718-1.72ZM82.135,20.764H64.783a1.721,1.721,0,0,1-1.718-1.719V4.837H83.854V19.045a1.721,1.721,0,0,1-1.719,1.719ZM77.22,6.178H74.588a.336.336,0,0,0-.336.335V9.145a.336.336,0,0,0,.336.335H77.22a.335.335,0,0,0,.335-.335V6.513a.335.335,0,0,0-.335-.335ZM76.885,8.81H74.924V6.849h1.961Zm5.222-2.632H79.477a.335.335,0,0,0-.336.335V9.145a.335.335,0,0,0,.336.335h2.631a.335.335,0,0,0,.336-.335V6.513a.335.335,0,0,0-.336-.335ZM81.772,8.81H79.812V6.849h1.961Zm-14.329,2.4H64.812a.335.335,0,0,0-.336.335v2.633a.336.336,0,0,0,.336.335h2.631a.336.336,0,0,0,.336-.335V11.547a.335.335,0,0,0-.336-.339Zm-.335,2.632H65.147V11.88h1.961Zm5.224-2.632H69.7a.335.335,0,0,0-.335.335v2.633a.335.335,0,0,0,.335.335h2.633a.335.335,0,0,0,.334-.335V11.547a.334.334,0,0,0-.334-.339ZM72,13.84H70.035V11.88H72Zm5.224-2.632H74.588a.336.336,0,0,0-.338.339V14.18a.336.336,0,0,0,.336.335h2.632a.335.335,0,0,0,.335-.335V11.547a.335.335,0,0,0-.333-.339Zm-.335,2.632H74.924V11.88h1.961Zm5.222-2.632H79.477a.335.335,0,0,0-.336.335v2.633a.336.336,0,0,0,.336.335h2.631a.336.336,0,0,0,.336-.335V11.547a.335.335,0,0,0-.336-.339Zm-.335,2.632H79.812V11.88h1.961Zm-14.33,2.4H64.812a.335.335,0,0,0-.336.335v2.632a.336.336,0,0,0,.336.335h2.631a.336.336,0,0,0,.336-.335V16.573a.335.335,0,0,0-.336-.335Zm-.335,2.632H65.147V16.908h1.961Zm5.224-2.632H69.7a.335.335,0,0,0-.335.335v2.632a.335.335,0,0,0,.335.335h2.633a.335.335,0,0,0,.334-.335V16.573a.334.334,0,0,0-.334-.335ZM72,18.87H70.035V16.908H72Zm5.224-2.632H74.588a.336.336,0,0,0-.336.335v2.632a.336.336,0,0,0,.336.335H77.22a.335.335,0,0,0,.335-.335V16.573a.335.335,0,0,0-.335-.335Zm-.335,2.632H74.924V16.908h1.961ZM75.9,12.519h0a.341.341,0,1,1-.341.341.341.341,0,0,1,.341-.341Zm-9.781,5.03h0a.34.34,0,1,1-.338.338.34.34,0,0,1,.338-.338Z" transform="translate(103.18 798.027)" fill="#97999b"/>
    </g>
  </g>
</svg>
