<?xml version="1.0"?>
<svg xmlns="http://www.w3.org/2000/svg" width="57.279" height="57.279" viewBox="0 0 57.279 57.279">
  <g id="_4" data-name="4" transform="translate(-588 -780)">
    <g id="Grupo_35708" data-name="Grupo 35708" transform="translate(22 -3.256)">
      <rect id="Rect&#xE1;ngulo_433" data-name="Rect&#xE1;ngulo 433" width="43.962" height="43.877" rx="8" transform="translate(572.658 789.454)" fill="#e0e0e0"/>
      <g id="Rect&#xE1;ngulo_434" data-name="Rect&#xE1;ngulo 434" transform="translate(566 799.738) rotate(-22)" fill="none" stroke="#bbbcbc" stroke-width="1">
        <rect width="44" height="44" rx="8" stroke="none"/>
        <rect x="0.5" y="0.5" width="43" height="43" rx="7.5" fill="none"/>
      </g>
      <g id="noun-online-3533011_1_" data-name="noun-online-3533011 (1)" transform="translate(502.084 716.616)">
        <path id="Trazado_864" data-name="Trazado 864" d="M158.392,141.826H174.23a.486.486,0,0,0,.485-.485v-9.62a.486.486,0,0,0-.485-.485h-.907a.284.284,0,1,0,0,.567h.825v9.456H158.473V131.8h12.58a.284.284,0,0,0,0-.567H158.392a.486.486,0,0,0-.485.485v9.62A.486.486,0,0,0,158.392,141.826Z" transform="translate(-73.652 -42.89)" fill="#97999b"/>
        <path id="Trazado_865" data-name="Trazado 865" d="M477.811,131.8h.3a.284.284,0,1,0,0-.567h-.3a.284.284,0,1,0,0,.567Z" transform="translate(-379.461 -42.889)" fill="#97999b"/>
        <path id="Trazado_866" data-name="Trazado 866" d="M102.923,100.123V87.811a1.405,1.405,0,0,0-1.4-1.4H83.8a1.405,1.405,0,0,0-1.4,1.4V100.1a1.521,1.521,0,0,0,.057,3.04h20.208a1.521,1.521,0,0,0,.263-3.018ZM83.8,86.976h17.719a.837.837,0,0,1,.838.835V100.1H95.786a.845.845,0,0,0-.844.843.277.277,0,0,1-.277.276H90.181a.277.277,0,0,1-.277-.276.845.845,0,0,0-.844-.843h-6.1V87.811a.837.837,0,0,1,.838-.835Zm19.538,15.319a.952.952,0,0,1-.677.28H82.451a.954.954,0,1,1,0-1.907H89.06a.277.277,0,0,1,.277.276.844.844,0,0,0,.844.843h4.484a.844.844,0,0,0,.844-.843.277.277,0,0,1,.277-.276h6.873a.957.957,0,0,1,.957.953.946.946,0,0,1-.28.675Z" transform="translate(0 0)" fill="#97999b"/>
        <path id="Trazado_867" data-name="Trazado 867" d="M282.69,187.76h-8.879a.284.284,0,0,0,0,.567h8.879a.284.284,0,1,0,0-.567Z" transform="translate(-184.277 -96.971)" fill="#97999b"/>
        <path id="Trazado_868" data-name="Trazado 868" d="M197.97,177.065a.284.284,0,0,0-.4.042l-.649.8-.335-.188h0a.284.284,0,0,0-.277.495l.389.218a.492.492,0,0,0,.625-.12l.688-.851a.284.284,0,0,0-.042-.4Z" transform="translate(-110.257 -86.678)" fill="#97999b"/>
        <path id="Trazado_869" data-name="Trazado 869" d="M282.69,247.16h-8.879a.284.284,0,0,0,0,.567h8.879a.284.284,0,1,0,0-.567Z" transform="translate(-184.277 -153.804)" fill="#97999b"/>
        <path id="Trazado_870" data-name="Trazado 870" d="M197.97,236.475a.284.284,0,0,0-.4.042l-.649.8-.335-.188a.284.284,0,0,0-.277.495l.389.218h0a.493.493,0,0,0,.625-.12l.688-.851A.284.284,0,0,0,197.97,236.475Z" transform="translate(-110.257 -143.52)" fill="#97999b"/>
        <path id="Trazado_871" data-name="Trazado 871" d="M282.69,306.57h-8.879a.284.284,0,0,0,0,.567h8.879a.284.284,0,1,0,0-.567Z" transform="translate(-184.277 -210.646)" fill="#97999b"/>
        <path id="Trazado_872" data-name="Trazado 872" d="M197.97,295.875a.284.284,0,0,0-.4.042l-.649.8-.335-.188a.284.284,0,1,0-.277.495l.389.218a.493.493,0,0,0,.625-.12l.688-.851A.283.283,0,0,0,197.97,295.875Z" transform="translate(-110.257 -200.353)" fill="#97999b"/>
      </g>
    </g>
  </g>
</svg>
