<?xml version="1.0"?>
<svg xmlns="http://www.w3.org/2000/svg" xmlns:xlink="http://www.w3.org/1999/xlink" width="89" height="89" viewBox="0 0 89 89">
  <defs>
    <filter id="Elipse_323" x="0" y="0" width="89" height="89" filterUnits="userSpaceOnUse">
      <feOffset dy="3" input="SourceAlpha"/>
      <feGaussianBlur stdDeviation="3" result="blur"/>
      <feFlood flood-opacity="0.161"/>
      <feComposite operator="in" in2="blur"/>
      <feComposite in="SourceGraphic"/>
    </filter>
    <filter id="Trazado_45641" x="9" y="9" width="71" height="71" filterUnits="userSpaceOnUse">
      <feOffset dy="3" input="SourceAlpha"/>
      <feGaussianBlur stdDeviation="3" result="blur-2"/>
      <feFlood flood-opacity="0.102"/>
      <feComposite operator="in" in2="blur-2"/>
      <feComposite in="SourceGraphic"/>
    </filter>
    <filter id="Elipse_321" x="27" y="25" width="35" height="35" filterUnits="userSpaceOnUse">
      <feOffset dy="1" input="SourceAlpha"/>
      <feGaussianBlur stdDeviation="1" result="blur-3"/>
      <feFlood flood-opacity="0.09"/>
      <feComposite operator="in" in2="blur-3"/>
      <feComposite in="SourceGraphic"/>
    </filter>
  </defs>
  <g id="boton_play" data-name="boton play" transform="translate(-667 -457)">
    <g transform="matrix(1, 0, 0, 1, 667, 457)" filter="url(#Elipse_323)">
      <circle id="Elipse_323-2" data-name="Elipse 323" cx="35.5" cy="35.5" r="35.5" transform="translate(9 6)" fill="#fff" opacity="0.49"/>
    </g>
    <g transform="matrix(1, 0, 0, 1, 667, 457)" filter="url(#Trazado_45641)">
      <path id="Trazado_45641-2" data-name="Trazado 45641" d="M26.5,0A26.5,26.5,0,1,1,0,26.5,26.5,26.5,0,0,1,26.5,0Z" transform="translate(18 15)" fill="#fff" opacity="0.741"/>
    </g>
    <g transform="matrix(1, 0, 0, 1, 667, 457)" filter="url(#Elipse_321)">
      <circle id="Elipse_321-2" data-name="Elipse 321" cx="14.5" cy="14.5" r="14.5" transform="translate(30 27)" fill="#fff"/>
    </g>
    <path id="Pol&#xED;gono_1" data-name="Pol&#xED;gono 1" d="M6.682,1.162a1,1,0,0,1,1.635,0l5.573,7.916a1,1,0,0,1-.818,1.576H1.927a1,1,0,0,1-.818-1.576Z" transform="translate(718.654 491) rotate(90)" fill="#25282a"/>
  </g>
</svg>
