<?xml version="1.0"?>
<svg xmlns="http://www.w3.org/2000/svg" width="46.961" height="46.961" viewBox="0 0 46.961 46.961">
  <g id="quote" transform="translate(-622 -1616)">
    <g id="Grupo_940" data-name="Grupo 940" transform="translate(622 1616)">
      <circle id="Elipse_323" data-name="Elipse 323" cx="23.48" cy="23.48" r="23.48" transform="translate(0 0)" fill="#25282a" opacity="0.091"/>
      <circle id="Elipse_322" data-name="Elipse 322" cx="16.552" cy="16.552" r="16.552" transform="translate(6.929 6.929)" fill="#25282a" opacity="0.173"/>
      <circle id="Elipse_321" data-name="Elipse 321" cx="8.853" cy="8.853" r="8.853" transform="translate(14.627 14.627)" fill="#25282a"/>
    </g>
    <g id="noun-quote-4881687" transform="translate(649.993 1642.6) rotate(180)">
      <path id="Trazado_835" data-name="Trazado 835" d="M3.256,0H.79A.789.789,0,0,0,0,.79V3.257a.789.789,0,0,0,.789.789h1.5a2.854,2.854,0,0,1-.086,1.2,2.821,2.821,0,0,1-.312.7.194.194,0,0,0,.24.28,2.939,2.939,0,0,0,.783-.492,3.7,3.7,0,0,0,1.105-2.3c.01-.077.017-.14.021-.181V.788A.789.789,0,0,0,3.256,0Z" fill="#fff"/>
      <path id="Trazado_836" data-name="Trazado 836" d="M3.254,0H.79A.789.789,0,0,0,0,.79V3.257a.789.789,0,0,0,.789.789h1.5a2.854,2.854,0,0,1-.086,1.2,2.823,2.823,0,0,1-.312.7.194.194,0,0,0,.24.28,2.94,2.94,0,0,0,.783-.492,3.7,3.7,0,0,0,1.105-2.3c.01-.077.017-.14.021-.181V.79A.789.789,0,0,0,3.254,0Z" transform="translate(4.98)" fill="#fff"/>
    </g>
  </g>
</svg>
